<svg xmlns="http://www.w3.org/2000/svg" width="36" height="26" viewBox="0 0 36 26">
  <path fill="#0fd65a" d="M569.119,1077.96a1.665,1.665,0,1,1,0-3.33h23.189a1.665,1.665,0,1,1,0,3.33H569.119Zm0-11.3a1.665,1.665,0,1,1,0-3.33h23.189a1.665,1.665,0,1,1,0,3.33H569.119Zm0-11.3a1.665,1.665,0,1,1,0-3.33h23.189a1.665,1.665,0,1,1,0,3.33H569.119Zm-9.376.07a1.71,1.71,0,1,1,1.747-1.71A1.732,1.732,0,0,1,559.743,1055.43Zm0,11.27a1.71,1.71,0,1,1,1.746-1.71A1.725,1.725,0,0,1,559.743,1066.7Zm0,11.3a1.71,1.71,0,1,1,1.747-1.71A1.726,1.726,0,0,1,559.743,1078Z" transform="translate(-558 -1052)"/>
</svg>
